<?xml version="1.0" encoding="UTF-8" standalone="no"?>
<!-- Created with Inkscape (http://www.inkscape.org/) -->

<svg
   xmlns:dc="http://purl.org/dc/elements/1.1/"
   xmlns:cc="http://creativecommons.org/ns#"
   xmlns:rdf="http://www.w3.org/1999/02/22-rdf-syntax-ns#"
   xmlns:svg="http://www.w3.org/2000/svg"
   xmlns="http://www.w3.org/2000/svg"
   xmlns:xlink="http://www.w3.org/1999/xlink"
   xmlns:sodipodi="http://sodipodi.sourceforge.net/DTD/sodipodi-0.dtd"
   xmlns:inkscape="http://www.inkscape.org/namespaces/inkscape"
   width="744.09448819"
   height="1052.3622047"
   id="svg2"
   version="1.1"
   inkscape:version="0.48.4 r9939"
   sodipodi:docname="icon.svg"
   inkscape:export-filename="C:\Users\Hanno\Dropbox\Projects\pyTest\icon.png"
   inkscape:export-xdpi="48.990002"
   inkscape:export-ydpi="48.990002">
  <defs
     id="defs4">
    <linearGradient
       id="linearGradient3769">
      <stop
         style="stop-color:#e9f438;stop-opacity:0.95493561;"
         offset="0"
         id="stop3771" />
      <stop
         id="stop3777"
         offset="0.38737705"
         style="stop-color:#ebf43b;stop-opacity:0.95278972;" />
      <stop
         style="stop-color:#c6cd43;stop-opacity:0.94849783;"
         offset="0.82257766"
         id="stop3779" />
      <stop
         style="stop-color:#a2a64b;stop-opacity:0.01287554;"
         offset="1"
         id="stop3773" />
    </linearGradient>
    <radialGradient
       inkscape:collect="always"
       xlink:href="#linearGradient3769"
       id="radialGradient3775"
       cx="281.83255"
       cy="387.68179"
       fx="281.83255"
       fy="387.68179"
       r="183.84776"
       gradientUnits="userSpaceOnUse" />
  </defs>
  <sodipodi:namedview
     id="base"
     pagecolor="#ffffff"
     bordercolor="#666666"
     borderopacity="1.0"
     inkscape:pageopacity="0.0"
     inkscape:pageshadow="2"
     inkscape:zoom="0.7"
     inkscape:cx="-75.802413"
     inkscape:cy="654.54925"
     inkscape:document-units="px"
     inkscape:current-layer="layer1"
     showgrid="false"
     inkscape:window-width="1920"
     inkscape:window-height="1017"
     inkscape:window-x="-8"
     inkscape:window-y="-8"
     inkscape:window-maximized="1" />
  <metadata
     id="metadata7">
    <rdf:RDF>
      <cc:Work
         rdf:about="">
        <dc:format>image/svg+xml</dc:format>
        <dc:type
           rdf:resource="http://purl.org/dc/dcmitype/StillImage" />
        <dc:title></dc:title>
      </cc:Work>
    </rdf:RDF>
  </metadata>
  <g
     inkscape:label="Layer 1"
     inkscape:groupmode="layer"
     id="layer1">
    <rect
       style="fill:#02003e;fill-opacity:1;stroke:none"
       id="rect3766"
       width="500.02554"
       height="500.02551"
       x="48.507633"
       y="112.94063"
       rx="19.959679"
       ry="20"
       inkscape:export-filename="C:\Users\Hanno\Dropbox\Projects\pyTest\resource\nightmare16.png"
       inkscape:export-xdpi="2.8798528"
       inkscape:export-ydpi="2.8798528" />
    <path
       sodipodi:type="arc"
       style="fill:url(#radialGradient3775);fill-opacity:1;stroke:none"
       id="path3763"
       sodipodi:cx="281.83255"
       sodipodi:cy="387.68179"
       sodipodi:rx="183.84776"
       sodipodi:ry="183.84776"
       d="m 465.68031,387.68179 a 183.84776,183.84776 0 1 1 -367.695523,0 183.84776,183.84776 0 1 1 367.695523,0 z"
       transform="matrix(1.2637363,0,0,1.2664835,-55.136566,-126.03924)"
       inkscape:export-filename="C:\Users\Hanno\Dropbox\Projects\pyTest\resource\nightmare16.png"
       inkscape:export-xdpi="2.8798528"
       inkscape:export-ydpi="2.8798528" />
    <path
       style="fill:#000000;fill-opacity:1;stroke:none"
       d="m 548.20355,510.55726 c -0.0541,-3.4527 -0.019,-11.00619 -0.0937,-13.1875 -0.0974,-2.84041 -0.38423,-5.66681 -0.8125,-8.4375 -0.42827,-2.77069 -1.00718,-5.48805 -1.75,-8.1875 -0.74282,-2.69945 -1.64648,-5.3733 -2.6875,-8 -1.04102,-2.6267 -2.20838,-5.19757 -3.53125,-7.75 -1.32287,-2.55243 -2.78663,-5.08586 -4.375,-7.5625 -1.58837,-2.47664 -3.31873,-4.91317 -5.15625,-7.3125 -1.83752,-2.39933 -3.80467,-4.742 -5.875,-7.0625 -2.07033,-2.3205 -4.24447,-4.60359 -6.53125,-6.84375 -2.28678,-2.24016 -4.66937,-4.43545 -7.15625,-6.59375 -2.48688,-2.1583 -5.07937,-4.30008 -7.75,-6.375 -5.34126,-4.14985 -11.02183,-8.13027 -17,-11.9375 -5.97817,-3.80723 -12.23446,-7.42253 -18.71874,-10.875 -6.48428,-3.45247 -13.20291,-6.72694 -20.0625,-9.8125 -6.85959,-3.08556 -13.86464,-5.98098 -20.96875,-8.6875 -7.10411,-2.70652 -14.31343,-5.21592 -21.53125,-7.53125 -7.21782,-2.31533 -14.45551,-4.43174 -21.65625,-6.34375 -7.20074,-1.91201 -14.35339,-3.62846 -21.40625,-5.125 -7.05286,-1.49654 -14.00707,-2.77482 -20.78125,-3.84375 -6.77418,-1.06893 -13.3853,-1.93332 -19.75,-2.5625 -6.3647,-0.62918 -12.48807,-1.04146 -18.3125,-1.21875 -5.82443,-0.17729 -11.34665,-0.13049 -16.5,0.15625 -4.47767,0.24915 -8.87558,0.62174 -13.21875,1.125 -4.34317,0.50326 -8.62572,1.14531 -12.8125,1.90625 -4.18678,0.76094 -8.27275,1.6653 -12.28125,2.6875 -4.0085,1.0222 -7.94169,2.15047 -11.75,3.4375 -3.80831,1.28703 -7.50751,2.72581 -11.09375,4.28125 -3.58624,1.55544 -7.06398,3.23508 -10.40625,5.0625 -3.34227,1.82742 -6.5486,3.80328 -9.625,5.90625 -3.0764,2.10297 -6.02386,4.33666 -8.8125,6.71875 -2.78864,2.38209 -5.42727,4.89772 -7.90625,7.5625 -2.47898,2.66478 -4.79007,5.48645 -6.9375,8.4375 -2.14743,2.95105 -4.11227,6.04036 -5.90625,9.28125 -1.79398,3.24089 -3.42511,6.62194 -4.84375,10.15625 -1.41864,3.53431 -2.63485,7.23121 -3.65625,11.0625 -1.0214,3.83129 -1.83523,7.80565 -2.4375,11.9375 -0.60227,4.13185 -0.99501,8.40777 -1.15625,12.84375 -0.16124,4.43598 -0.0829,9.03756 0.21875,13.78125 0.25706,4.04196 0.66775,7.91916 1.25,11.625 0.58225,3.70584 1.32317,7.24697 2.21875,10.625 0.89558,3.37803 1.95918,6.56648 3.15625,9.625 1.19707,3.05852 2.54454,5.97144 4.03125,8.71875 1.48671,2.74731 3.11051,5.33684 4.875,7.78125 1.76449,2.44441 3.65707,4.75643 5.6875,6.90625 2.03043,2.14982 4.18424,4.13647 6.46875,6 2.28451,1.86353 4.692,3.60195 7.21875,5.1875 2.52675,1.58555 5.18037,3.02787 7.9375,4.34375 2.75713,1.31588 5.61808,2.50799 8.59375,3.5625 2.97567,1.05451 6.06765,1.97981 9.25,2.78125 3.18235,0.80144 6.46657,1.47456 9.84375,2.03125 3.37718,0.55669 6.84608,0.99227 10.40625,1.3125 3.56017,0.32023 7.2062,0.53291 10.9375,0.625 3.7313,0.0921 7.54692,0.0653 11.4375,-0.0625 3.89058,-0.12775 7.86824,-0.37946 11.90625,-0.71875 6.70596,-0.56346 12.94479,-1.33902 18.71875,-2.40625 2.88698,-0.53361 5.65833,-1.13557 8.3125,-1.8125 2.65417,-0.67693 5.17226,-1.44941 7.59375,-2.28125 2.42149,-0.83184 4.74856,-1.72043 6.9375,-2.71875 2.18894,-0.99832 4.23099,-2.10486 6.1875,-3.28125 1.95651,-1.17639 3.80703,-2.44645 5.53125,-3.8125 1.72422,-1.36605 3.3517,-2.80772 4.84375,-4.375 1.49205,-1.56728 2.86499,-3.25114 4.125,-5.03125 1.26001,-1.78011 2.37815,-3.65174 3.40625,-5.65625 1.0281,-2.00451 1.95369,-4.1345 2.75,-6.375 0.79631,-2.2405 1.46659,-4.60567 2.03125,-7.09375 0.56466,-2.48808 1.01062,-5.09651 1.34375,-7.84375 0.33313,-2.74724 0.55452,-5.63827 0.65625,-8.65625 0.10173,-3.01798 0.0983,-6.16844 -0.0312,-9.46875 -0.12954,-3.30031 -0.38931,-6.74953 -0.75,-10.34375 -0.57801,-5.75982 -1.3843,-11.37083 -2.46875,-16.75 -0.54223,-2.68959 -1.13546,-5.30431 -1.8125,-7.875 -0.67704,-2.57069 -1.43267,-5.09528 -2.25,-7.53125 -0.81733,-2.43597 -1.72442,-4.77707 -2.6875,-7.0625 -0.96308,-2.28543 -1.97945,-4.50592 -3.09375,-6.625 -1.1143,-2.11908 -2.32276,-4.15685 -3.59375,-6.09375 -1.27099,-1.9369 -2.5981,-3.76111 -4.03125,-5.5 -1.43315,-1.73889 -2.96172,-3.38118 -4.5625,-4.90625 -1.60078,-1.52507 -3.28862,-2.95457 -5.0625,-4.25 -1.77388,-1.29543 -3.6413,-2.45004 -5.59375,-3.5 -1.95245,-1.04996 -3.98851,-1.99258 -6.125,-2.78125 -2.13649,-0.78867 -4.36151,-1.42593 -6.6875,-1.9375 -2.32599,-0.51157 -4.76028,-0.87511 -7.28125,-1.09375 -2.52097,-0.21864 -5.12234,-0.30886 -7.84375,-0.21875 -2.72141,0.0901 -5.54142,0.33532 -8.46875,0.75 -4.45217,0.63069 -8.93075,1.48113 -13.34375,2.5625 -4.413,1.08137 -8.77569,2.41284 -12.96875,3.96875 -4.19306,1.55591 -8.2389,3.35191 -12.03125,5.40625 -1.89618,1.02717 -3.70665,2.125 -5.46875,3.28125 -1.7621,1.15625 -3.45707,2.36793 -5.0625,3.65625 -1.60543,1.28832 -3.13633,2.63913 -4.5625,4.0625 -1.42617,1.42337 -2.74444,2.90734 -3.96875,4.46875 -1.22431,1.56141 -2.3439,3.20382 -3.34375,4.90625 -0.99985,1.70243 -1.90345,3.46607 -2.65625,5.3125 -0.7528,1.84643 -1.36061,3.78783 -1.84375,5.78125 -0.48314,1.99342 -0.84035,4.0441 -1.03125,6.1875 -0.1909,2.1434 -0.2177,4.35989 -0.0937,6.65625 0.12395,2.29636 0.41361,4.6727 0.875,7.125 0.6459,3.43301 1.60233,6.78538 2.84375,10 1.24142,3.21462 2.75141,6.30343 4.53125,9.21875 1.77984,2.91532 3.83258,5.65239 6.09375,8.1875 2.26117,2.53511 4.7521,4.86352 7.4375,6.9375 1.3427,1.03699 2.72887,2.00931 4.1875,2.90625 1.45863,0.89694 2.97253,1.72987 4.53125,2.46875 1.55872,0.73888 3.16955,1.3747 4.8125,1.9375 1.64295,0.5628 3.31991,1.03755 5.03125,1.40625 1.71134,0.3687 3.45487,0.62467 5.21875,0.78125 1.76388,0.15658 3.54318,0.22981 5.34375,0.15625 1.80057,-0.0736 3.61609,-0.27204 5.4375,-0.59375 1.82141,-0.32171 3.6736,-0.78712 5.5,-1.375 2.2344,-0.71921 4.36372,-1.63242 6.40625,-2.75 2.04253,-1.11758 3.96826,-2.44977 5.78125,-3.9375 1.81299,-1.48773 3.51674,-3.13909 5.0625,-4.96875 1.54576,-1.82966 2.94664,-3.82539 4.1875,-5.96875 1.24087,-2.14336 2.26983,-4.54908 3,-7.125 0.36508,-1.28796 0.66624,-2.6141 0.875,-3.96875 0.20876,-1.35465 0.31041,-2.73129 0.34375,-4.125 0.0333,-1.39371 -0.0263,-2.8136 -0.1875,-4.21875 -0.16118,-1.40515 -0.40645,-2.79855 -0.78125,-4.1875 -0.3748,-1.38895 -0.86123,-2.77988 -1.46875,-4.125 -0.60752,-1.34512 -1.32817,-2.66384 -2.1875,-3.9375 -0.85447,-1.27209 -1.98906,-2.35024 -3.25,-3.1875 -1.26094,-0.83726 -2.64931,-1.41238 -4.125,-1.6875 -1.47569,-0.27512 -3.00376,-0.2353 -4.46875,0.0937 -1.46499,0.32905 -2.89345,0.92931 -4.125,1.8125 -1.23154,0.88319 -2.2838,2.04135 -3.09375,3.34375 -0.80995,1.3024 -1.35979,2.75766 -1.625,4.28125 -0.26521,1.52358 -0.22631,3.08175 0.0937,4.59375 0.32006,1.512 0.92458,2.97947 1.78125,4.25 0.37792,0.56014 0.64577,1.03036 0.8125,1.46875 0.16673,0.43839 0.22692,0.85109 0.1875,1.28125 -0.0788,0.86032 -0.56422,1.80408 -1.4375,3.3125 -0.43664,0.75422 -1.04001,1.53446 -1.71875,2.28125 -0.67874,0.74679 -1.45143,1.47036 -2.25,2.125 -1.59714,1.30928 -3.28206,2.34898 -4.625,2.78125 -1.78411,0.57428 -3.54933,0.88273 -5.25,0.96875 -1.70067,0.086 -3.34447,-0.0417 -4.96875,-0.40625 -1.62428,-0.36458 -3.22629,-0.97247 -4.78125,-1.75 -1.55496,-0.77753 -3.06981,-1.75342 -4.5625,-2.90625 -1.4927,-1.15283 -2.9132,-2.48037 -4.21875,-3.96875 -1.30555,-1.48838 -2.50867,-3.1197 -3.5625,-4.84375 -1.05383,-1.72405 -1.94996,-3.54639 -2.6875,-5.40625 -0.73754,-1.85986 -1.29957,-3.76044 -1.65625,-5.65625 -0.28801,-1.53077 -0.4512,-3.00442 -0.5,-4.40625 -0.0488,-1.40183 0.0143,-2.72093 0.1875,-4 0.17322,-1.27907 0.4657,-2.52502 0.84375,-3.6875 0.37805,-1.16248 0.84055,-2.26042 1.40625,-3.3125 0.5657,-1.05208 1.23259,-2.05215 1.96875,-3 0.73616,-0.94785 1.54807,-1.83769 2.4375,-2.6875 1.77885,-1.69961 3.83619,-3.218 6.125,-4.5625 2.28881,-1.3445 4.80748,-2.52367 7.46875,-3.5625 2.66127,-1.03883 5.47878,-1.93616 8.375,-2.71875 2.89622,-0.78259 5.88132,-1.45547 8.875,-2.03125 2.99368,-0.57578 5.98386,-1.05034 8.9375,-1.46875 2.05849,-0.29161 4.04322,-0.45153 5.96875,-0.5 1.92553,-0.0485 3.79885,0.005 5.59375,0.1875 1.7949,0.18217 3.52091,0.50592 5.1875,0.90625 1.66659,0.40033 3.27188,0.89401 4.8125,1.5 1.54062,0.60599 3.02052,1.29459 4.4375,2.09375 1.41698,0.79916 2.76683,1.70766 4.0625,2.6875 1.29567,0.97984 2.54207,2.03948 3.71875,3.1875 1.17668,1.14802 2.28372,2.38378 3.34375,3.6875 1.06003,1.30372 2.05429,2.67807 3,4.125 0.94571,1.44693 1.85378,2.95361 2.6875,4.53125 1.66744,3.15528 3.1103,6.58432 4.34375,10.1875 1.23345,3.60318 2.2444,7.3926 3.0625,11.34375 0.8181,3.95115 1.42235,8.05081 1.84375,12.25 0.27221,2.71252 0.43885,5.29566 0.5,7.75 0.0611,2.45434 0.0206,4.79021 -0.125,7 -0.14563,2.20979 -0.37061,4.30237 -0.71875,6.28125 -0.34814,1.97888 -0.79738,3.83215 -1.34375,5.59375 -0.54637,1.7616 -1.19718,3.4108 -1.9375,4.96875 -0.74032,1.55795 -1.57,3.03831 -2.5,4.40625 -0.93,1.36794 -1.97835,2.62093 -3.09375,3.8125 -1.1154,1.19157 -2.29723,2.31492 -3.59375,3.34375 -1.29652,1.02883 -2.68289,1.96403 -4.15625,2.84375 -1.47336,0.87972 -3.04157,1.69325 -4.6875,2.4375 -1.64593,0.74425 -3.37328,1.44009 -5.1875,2.0625 -1.81422,0.62241 -3.70926,1.17329 -5.6875,1.6875 -3.95648,1.02842 -8.25687,1.85383 -12.84375,2.53125 -4.58688,0.67742 -9.47319,1.22075 -14.65625,1.65625 -6.38747,0.5367 -12.59942,0.7536 -18.59375,0.625 -2.99717,-0.0643 -5.93256,-0.22663 -8.8125,-0.46875 -2.87994,-0.24212 -5.71867,-0.57239 -8.46875,-1 -2.75008,-0.42761 -5.42365,-0.94174 -8.03125,-1.5625 -2.6076,-0.62076 -5.14126,-1.33467 -7.59375,-2.15625 -2.45249,-0.82158 -4.80901,-1.75118 -7.09375,-2.78125 -2.28474,-1.03007 -4.48938,-2.16003 -6.59375,-3.40625 -2.10437,-1.24622 -4.11987,-2.62371 -6.03125,-4.09375 -1.91138,-1.47004 -3.73175,-3.04848 -5.4375,-4.75 -1.70575,-1.70152 -3.29376,-3.52808 -4.78125,-5.46875 -1.48749,-1.94067 -2.86839,-4.00001 -4.125,-6.1875 -1.25661,-2.18749 -2.39316,-4.49553 -3.40625,-6.9375 -1.01309,-2.44197 -1.8993,-5.01464 -2.65625,-7.71875 -0.75695,-2.70411 -1.38682,-5.52608 -1.875,-8.5 -0.48818,-2.97392 -0.82447,-6.09235 -1.03125,-9.34375 -0.24672,-3.87938 -0.269,-7.61627 -0.0312,-11.21875 0.23775,-3.60248 0.71566,-7.07436 1.40625,-10.40625 0.69059,-3.33189 1.60697,-6.52613 2.71875,-9.59375 1.11178,-3.06762 2.43616,-6.00285 3.9375,-8.8125 1.50134,-2.80965 3.17198,-5.5045 5.03125,-8.0625 1.85927,-2.558 3.9082,-4.99985 6.09375,-7.3125 2.18555,-2.31265 4.5198,-4.48888 7,-6.5625 2.4802,-2.07362 5.10054,-4.0341 7.84375,-5.875 2.74321,-1.8409 5.61917,-3.57301 8.59375,-5.1875 2.97458,-1.61449 6.04443,-3.10561 9.21875,-4.5 3.17432,-1.39439 6.43884,-2.6944 9.78125,-3.875 3.34241,-1.1806 6.77113,-2.24562 10.25,-3.21875 3.47887,-0.97313 7.01005,-1.85304 10.59375,-2.625 3.5837,-0.77196 7.21812,-1.42289 10.875,-2 3.65688,-0.57711 7.33282,-1.08018 11.03125,-1.46875 3.69843,-0.38857 7.41666,-0.66866 11.125,-0.875 4.3213,-0.24045 8.56735,-0.24626 12.71875,0 4.1514,0.24626 8.21777,0.73072 12.1875,1.4375 3.96973,0.70678 7.81745,1.64013 11.59375,2.78125 3.7763,1.14112 7.46015,2.51322 11.03125,4.0625 3.5711,1.54928 7.05211,3.28749 10.40625,5.21875 3.35414,1.93126 6.59333,4.0567 9.71875,6.34375 3.12542,2.28705 6.11507,4.72708 9,7.34375 2.88493,2.61667 5.64857,5.39239 8.28125,8.3125 2.63268,2.92011 5.16259,5.99014 7.53125,9.1875 2.36866,3.19736 4.59462,6.52031 6.6875,9.96875 2.09288,3.44844 4.03841,7.01417 5.84375,10.6875 1.80534,3.67333 3.46272,7.47171 4.96875,11.34375 1.50603,3.87204 2.86754,7.83042 4.0625,11.875 1.19496,4.04458 2.22162,8.15282 3.09375,12.34375 0.87213,4.19093 1.58747,8.47015 2.125,12.78125 0.53753,4.3111 0.90258,8.65741 1.09375,13.0625 0.20252,4.66652 0.21671,8.9075 0.0312,12.8125 -0.18546,3.905 -0.57734,7.49451 -1.15625,10.8125 -0.57891,3.31799 -1.36594,6.37576 -2.34375,9.28125 -0.97781,2.90549 -2.14907,5.645 -3.53125,8.3125 -1.38218,2.6675 -2.95799,5.27099 -4.75,7.875 -1.79201,2.60401 -3.79269,5.22247 -6,7.9375 -4.41462,5.43005 -9.67267,11.23509 -15.78125,18.15625 -1.01272,1.14249 -8.11136,9.17858 -14.9375,17.3125 -3.41307,4.06696 -6.73493,8.16862 -9.21875,11.4375 -1.24191,1.63444 -2.28822,3.07082 -3,4.1875 -0.51521,0.80829 -0.63346,1.21504 -0.78125,1.65625 l 174.84374,0 c 11.05766,0 19.9375,-8.92 19.9375,-20 l 0,-82.09375 z"
       id="path3812"
       inkscape:connector-curvature="0"
       inkscape:export-filename="C:\Users\Hanno\Dropbox\Projects\pyTest\resource\nightmare16.png"
       inkscape:export-xdpi="2.8798528"
       inkscape:export-ydpi="2.8798528" />
  </g>
</svg>
